<?xml version="1.0" encoding="UTF-8"?>
<svg width="40px" height="40px" viewBox="0 0 40 40" version="1.1" xmlns="http://www.w3.org/2000/svg" xmlns:xlink="http://www.w3.org/1999/xlink">
    <!-- Generator: Sketch 47.1 (45422) - http://www.bohemiancoding.com/sketch -->
    <title>qontak-logomark</title>
    <desc>Created with Sketch.</desc>
    <defs></defs>
    <g id="Page-1" stroke="none" stroke-width="1" fill="none" fill-rule="evenodd">
        <g id="brand-guidelines-1" transform="translate(-90.000000, -623.000000)" fill="#0274F5">
            <g id="qontak-logomark" transform="translate(60.000000, 593.000000)">
                <g transform="translate(30.000000, 30.000000)" id="Combined-Shape">
                    <path d="M19.6491228,39.9969841 C8.76529878,39.8097503 0,30.9284978 0,20 C0,8.954305 8.954305,0 20,0 C31.045695,0 40,8.954305 40,20 C40,23.1160542 39.2873836,26.0656678 38.0162303,28.6947617 C36.4492606,27.4264121 34.4537052,26.6666667 32.2807018,26.6666667 L27.8469862,26.6666667 C29.122794,24.9426372 29.877193,22.8094182 29.877193,20.5 C29.877193,14.7688346 25.2311654,10.122807 19.5,10.122807 C13.7688346,10.122807 9.12280702,14.7688346 9.12280702,20.5 C9.12280702,26.2311654 13.7688346,30.877193 19.5,30.877193 C19.5497903,30.877193 19.5994987,30.8768423 19.6491228,30.8761433 L19.6491228,33.3333333 L19.6491228,30.877193 L30.877193,30.877193 L30.877193,30.877193 C35.9155802,30.877193 40,34.9616128 40,40 L40,40 L19.6491228,40 L19.6491228,39.9969841 Z"></path>
                </g>
            </g>
        </g>
    </g>
</svg>