<?xml version="1.0" encoding="UTF-8"?>
<svg width="80px" height="18px" viewBox="0 0 80 18" version="1.1" xmlns="http://www.w3.org/2000/svg" xmlns:xlink="http://www.w3.org/1999/xlink">
    <!-- Generator: Sketch 47.1 (45422) - http://www.bohemiancoding.com/sketch -->
    <title>qontak-logo</title>
    <desc>Created with Sketch.</desc>
    <defs></defs>
    <g id="Page-1" stroke="none" stroke-width="1" fill="none" fill-rule="evenodd">
        <g id="brand-guidelines-1" transform="translate(-70.000000, -397.000000)" fill="#0274F5">
            <g id="qontak-logo" transform="translate(60.000000, 356.000000)">
                <g transform="translate(10.000000, 41.000000)">
                    <path d="M28.0726512,17.7382716 L28.0726512,12.4600835 L28.033145,12.4600835 C27.4603055,13.4448201 26.4528981,14.0947462 24.9516635,14.0947462 C22.541787,14.0947462 20.5072191,12.2828309 20.5072191,9.24984226 C20.5072191,6.21685358 22.541787,4.40493827 24.9516635,4.40493827 C26.4528981,4.40493827 27.4603055,5.05486442 28.033145,6.039601 L28.0726512,6.039601 L28.0726512,4.70035925 L30.0084537,4.70035925 L30.0084537,17.7382716 L28.0726512,17.7382716 Z M25.3664783,12.2271605 C27.0652438,12.2271605 28.1714166,11.0024691 28.1714166,9.26419753 C28.1714166,7.52592593 27.0652438,6.30123457 25.3664783,6.30123457 C23.6677129,6.30123457 22.5615401,7.52592593 22.5615401,9.26419753 C22.5615401,11.0024691 23.6677129,12.2271605 25.3664783,12.2271605 Z M36.7837623,4.40493827 C39.6479598,4.40493827 41.7812932,6.45925926 41.7812932,9.26419753 C41.7812932,12.0691358 39.6479598,14.1234568 36.7837623,14.1234568 C33.9195648,14.1234568 31.7862314,12.0691358 31.7862314,9.26419753 C31.7862314,6.45925926 33.9195648,4.40493827 36.7837623,4.40493827 Z M36.7837623,6.30123457 C35.0454907,6.30123457 33.8405524,7.46666667 33.8405524,9.26419753 C33.8405524,11.0617284 35.0454907,12.2271605 36.7837623,12.2271605 C38.5220339,12.2271605 39.7269722,11.0617284 39.7269722,9.26419753 C39.7269722,7.46666667 38.5220339,6.30123457 36.7837623,6.30123457 Z M48.5170956,4.40493827 C47.1146265,4.40493827 46.1269722,5.03703704 45.5343796,6.08395062 L45.4948734,6.08395062 L45.4948734,4.70123457 L43.5590709,4.70123457 L43.5590709,13.8271605 L45.4948734,13.8271605 L45.4948734,9.4617284 C45.4948734,7.19012346 46.5022808,6.34074074 47.924503,6.34074074 C49.2282067,6.34074074 50.0183302,6.99259259 50.0183302,8.55308642 L50.0183302,13.8271605 L51.9541327,13.8271605 L51.9541327,8.21728395 C51.9541327,5.45185185 50.4726512,4.40493827 48.5170956,4.40493827 Z M58.7491944,6.34074074 L58.7491944,4.70123457 L56.8924043,4.70123457 L56.8924043,1.04691358 L54.9566018,1.04691358 L54.9566018,4.70123457 L53.3368487,4.70123457 L53.3368487,6.34074074 L54.9566018,6.34074074 L54.9566018,11.4962963 C54.9566018,12.9975309 55.8257376,13.8469136 57.4257376,13.8469136 L58.3146265,13.8469136 L58.3146265,12.0691358 L57.8405524,12.0691358 C57.1689475,12.0691358 56.8924043,11.7728395 56.8924043,11.1209877 L56.8924043,6.34074074 L58.7491944,6.34074074 Z M64.1812932,14.1234568 C61.7714166,14.1234568 59.7368487,12.3061728 59.7368487,9.26419753 C59.7368487,6.22222222 61.7714166,4.40493827 64.1812932,4.40493827 C65.6825277,4.40493827 66.6899351,5.05679012 67.2627746,6.04444444 L67.3022808,6.04444444 L67.3022808,4.70123457 L69.2380833,4.70123457 L69.2380833,13.8271605 L67.3022808,13.8271605 L67.3022808,12.4839506 L67.2627746,12.4839506 C66.6899351,13.4716049 65.6825277,14.1234568 64.1812932,14.1234568 Z M64.596108,12.2271605 C66.2948734,12.2271605 67.4010462,11.0024691 67.4010462,9.26419753 C67.4010462,7.52592593 66.2948734,6.30123457 64.596108,6.30123457 C62.8973425,6.30123457 61.7911697,7.52592593 61.7911697,9.26419753 C61.7911697,11.0024691 62.8973425,12.2271605 64.596108,12.2271605 Z M79.8652438,13.8271605 L75.6183302,8.84938272 L79.450429,4.70123457 L76.9022808,4.70123457 L73.6430216,8.59259259 L73.6430216,-7.10542736e-15 L71.7072191,-7.10542736e-15 L71.7072191,13.8271605 L73.6430216,13.8271605 L73.6430216,9.34320988 L77.3170956,13.8271605 L79.8652438,13.8271605 Z" id="qontak-copy"></path>
                    <path d="M8.73294347,17.7764374 C3.89568835,17.6932224 0,13.745999 0,8.88888889 C0,3.97969111 3.97969111,0 8.88888889,0 C13.7980867,0 17.7777778,3.97969111 17.7777778,8.88888889 C17.7777778,10.2738023 17.4610592,11.5847421 16.8961018,12.7532286 C16.1996713,12.1895165 15.3127578,11.8518519 14.3469786,11.8518519 L12.3764383,11.8518519 C12.943464,11.0856165 13.2787524,10.1375192 13.2787524,9.11111111 C13.2787524,6.56392648 11.2138513,4.49902534 8.66666667,4.49902534 C6.11948203,4.49902534 4.0545809,6.56392648 4.0545809,9.11111111 C4.0545809,11.6582957 6.11948203,13.7231969 8.66666667,13.7231969 C8.68879568,13.7231969 8.71088829,13.723041 8.73294347,13.7227304 L8.73294347,14.8148148 L8.73294347,13.7231969 L13.7231969,13.7231969 C15.9624801,13.7231969 17.7777778,15.5384946 17.7777778,17.7777778 L17.7777778,17.7777778 L8.73294347,17.7777778 L8.73294347,17.7764374 Z" id="Combined-Shape"></path>
                </g>
            </g>
        </g>
    </g>
</svg>