<svg width="48" height="48" viewBox="0 0 48 48" fill="none" xmlns="http://www.w3.org/2000/svg">
<rect width="48" height="48" rx="10" fill="url(#paint0_linear)"/>
<g filter="url(#filter0_di)">
<path d="M31.5171 31.2469C28.864 31.2187 26.2109 31.275 23.5577 31.2281C20.464 31.2 17.7265 29.1844 16.7984 26.2312C16.6765 25.8562 16.5921 25.4625 16.5359 25.0781C16.489 24.7781 16.4609 24.4688 16.4515 24.1594C16.339 19.8937 19.8546 16.5094 24.1577 16.7437C27.5234 16.9219 30.214 19.4812 30.8327 22.65C30.9171 23.1 30.9546 23.55 30.9546 24C30.9546 24.3281 30.9359 24.6656 30.889 24.9938C30.7202 26.175 30.6265 27.2156 30.0077 28.3125C31.0577 28.3125 31.5921 28.3125 32.5296 28.3125C33.7671 28.3125 34.9577 28.5281 35.9609 29.2687C36.5796 29.7281 36.7577 29.5688 37.0202 28.9313C37.7234 27.2063 38.0702 25.35 38.0515 23.4844C38.0515 23.4469 38.0515 23.4 38.0515 23.3625C38.0515 23.2969 38.0515 23.2406 38.0515 23.175C37.8452 17.1 33.7765 11.8406 27.9546 10.125C27.2046 9.9 26.4359 9.75 25.6671 9.65625L25.639 9.64688H25.564C24.5515 9.53437 23.539 9.53437 22.5265 9.64688H22.3296C22.2452 9.66563 22.1515 9.68437 22.0671 9.70312C21.9827 9.72187 21.8796 9.73125 21.7859 9.75C16.4327 10.6312 11.7921 14.5875 10.4421 20.1563C10.0109 21.9188 9.91712 23.7375 10.1702 25.5375C10.1796 25.6031 10.189 25.6594 10.1984 25.7344C10.1984 25.7812 10.1984 25.8375 10.2077 25.8844C10.2734 26.2594 10.3577 26.625 10.4515 27V27.0094C10.4796 27.1125 10.5077 27.2062 10.5265 27.3094C10.564 27.4312 10.6015 27.5531 10.639 27.6844L10.6765 27.7875C10.6859 27.8344 10.7046 27.8812 10.714 27.9187C12.5702 33.6469 17.6609 37.5375 23.8765 37.65C28.3952 37.7344 32.914 37.6594 37.4327 37.6781C37.9859 37.6781 38.089 37.5 38.0234 36.9938C37.6015 33.6188 34.9765 31.275 31.5171 31.2469Z" fill="url(#paint1_linear)"/>
<path d="M31.517 31.9969C28.8639 31.9687 26.2108 32.025 23.5576 31.9781C20.4639 31.95 17.7264 29.9344 16.7983 26.9812C16.6764 26.6062 16.592 26.2125 16.5358 25.8281C16.4889 25.5281 16.4608 25.2187 16.4514 24.9094C16.3389 20.6437 19.8545 17.2594 24.1576 17.4937C27.5233 17.6719 30.2139 20.2312 30.8326 23.4C30.917 23.85 30.9545 24.3 30.9545 24.75C30.9545 25.0781 30.9358 25.4156 30.8889 25.7438C30.7201 26.925 30.2233 27.9656 29.6045 29.0625C30.6545 29.0625 31.592 29.0625 32.5389 29.0625C33.7764 29.0625 34.967 29.2781 35.9701 30.0187C36.5889 30.4781 36.767 30.3188 37.0295 29.6813C37.7326 27.9563 38.0795 26.1 38.0608 24.2344C38.0608 24.1969 38.0608 24.15 38.0608 24.1125C38.0608 24.0469 38.0608 23.9906 38.0608 23.925C37.8545 17.85 33.7858 12.5906 27.9639 10.875C27.2139 10.65 26.4451 10.5 25.6764 10.4062L25.6483 10.3969H25.5733C24.5608 10.2844 23.5483 10.2844 22.5358 10.3969H22.3389C22.2545 10.4156 22.1608 10.4344 22.0764 10.4531C21.992 10.4719 21.8889 10.4812 21.7951 10.5C16.442 11.3812 11.8014 15.3375 10.4514 20.9063C10.0201 22.6688 9.9264 24.4875 10.1795 26.2875C10.1889 26.3531 10.1983 26.4094 10.2076 26.4844C10.2076 26.5312 10.2076 26.5875 10.217 26.6344C10.2826 27.0094 10.367 27.375 10.4608 27.75V27.7594C10.4889 27.8625 10.517 27.9562 10.5358 28.0594C10.5733 28.1812 10.6108 28.3031 10.6483 28.4344L10.6858 28.5375C10.6951 28.5844 10.7139 28.6312 10.7233 28.6687C12.5795 34.3969 17.6701 38.2875 23.8858 38.4C28.4045 38.4844 32.9233 38.4094 37.442 38.4281C37.9951 38.4281 38.0983 38.25 38.0326 37.7438C37.6014 34.3688 34.9764 32.025 31.517 31.9969Z" fill="url(#paint2_linear)"/>
</g>
<defs>
<filter id="filter0_di" x="4.78125" y="8.0625" width="38.5302" height="39.3785" filterUnits="userSpaceOnUse" color-interpolation-filters="sRGB">
<feFlood flood-opacity="0" result="BackgroundImageFix"/>
<feColorMatrix in="SourceAlpha" type="matrix" values="0 0 0 0 0 0 0 0 0 0 0 0 0 0 0 0 0 0 127 0"/>
<feOffset dy="3.75"/>
<feGaussianBlur stdDeviation="2.625"/>
<feColorMatrix type="matrix" values="0 0 0 0 0 0 0 0 0 0 0 0 0 0 0 0 0 0 0.2 0"/>
<feBlend mode="normal" in2="BackgroundImageFix" result="effect1_dropShadow"/>
<feBlend mode="normal" in="SourceGraphic" in2="effect1_dropShadow" result="shape"/>
<feColorMatrix in="SourceAlpha" type="matrix" values="0 0 0 0 0 0 0 0 0 0 0 0 0 0 0 0 0 0 127 0" result="hardAlpha"/>
<feOffset dy="0.47"/>
<feGaussianBlur stdDeviation="0.045"/>
<feComposite in2="hardAlpha" operator="arithmetic" k2="-1" k3="1"/>
<feColorMatrix type="matrix" values="0 0 0 0 1 0 0 0 0 1 0 0 0 0 1 0 0 0 0.2 0"/>
<feBlend mode="normal" in2="shape" result="effect2_innerShadow"/>
</filter>
<linearGradient id="paint0_linear" x1="31.5938" y1="2.54347e-07" x2="13.875" y2="43.0781" gradientUnits="userSpaceOnUse">
<stop stop-color="#429FFC"/>
<stop offset="0.770833" stop-color="#0069E0"/>
</linearGradient>
<linearGradient id="paint1_linear" x1="24.0546" y1="37.6781" x2="24.0546" y2="9.55313" gradientUnits="userSpaceOnUse">
<stop stop-color="#94C8F7"/>
<stop offset="0.7396" stop-color="#99CEFF"/>
</linearGradient>
<linearGradient id="paint2_linear" x1="24.0545" y1="38.4281" x2="24.0545" y2="10.3031" gradientUnits="userSpaceOnUse">
<stop stop-color="#E3F0FC"/>
<stop offset="0.7396" stop-color="#F7F7F7"/>
</linearGradient>
</defs>
</svg>
