<?xml version="1.0" encoding="UTF-8"?>
<svg width="80px" height="20px" viewBox="0 0 80 20" version="1.1" xmlns="http://www.w3.org/2000/svg" xmlns:xlink="http://www.w3.org/1999/xlink">
    <title>qontak-logo</title>
    <g id="Page-1" stroke="none" stroke-width="1" fill="none" fill-rule="evenodd">
        <g id="qontak-logo" transform="translate(-10.000000, -41.000000)">
            <g transform="translate(10.000000, 41.000000)">
                <path d="M28.0726512,17.7382716 L28.0726512,12.4600835 L28.033145,12.4600835 C27.4603055,13.4448201 26.4528981,14.0947462 24.9516635,14.0947462 C22.541787,14.0947462 20.5072191,12.2828309 20.5072191,9.24984226 C20.5072191,6.21685358 22.541787,4.40493827 24.9516635,4.40493827 C26.4528981,4.40493827 27.4603055,5.05486442 28.033145,6.039601 L28.0726512,6.039601 L28.0726512,4.70035925 L30.0084537,4.70035925 L30.0084537,17.7382716 L28.0726512,17.7382716 Z M25.3664783,12.2271605 C27.0652438,12.2271605 28.1714166,11.0024691 28.1714166,9.26419753 C28.1714166,7.52592593 27.0652438,6.30123457 25.3664783,6.30123457 C23.6677129,6.30123457 22.5615401,7.52592593 22.5615401,9.26419753 C22.5615401,11.0024691 23.6677129,12.2271605 25.3664783,12.2271605 Z M36.7837623,4.40493827 C39.6479598,4.40493827 41.7812932,6.45925926 41.7812932,9.26419753 C41.7812932,12.0691358 39.6479598,14.1234568 36.7837623,14.1234568 C33.9195648,14.1234568 31.7862314,12.0691358 31.7862314,9.26419753 C31.7862314,6.45925926 33.9195648,4.40493827 36.7837623,4.40493827 Z M36.7837623,6.30123457 C35.0454907,6.30123457 33.8405524,7.46666667 33.8405524,9.26419753 C33.8405524,11.0617284 35.0454907,12.2271605 36.7837623,12.2271605 C38.5220339,12.2271605 39.7269722,11.0617284 39.7269722,9.26419753 C39.7269722,7.46666667 38.5220339,6.30123457 36.7837623,6.30123457 Z M48.5170956,4.40493827 C47.1146265,4.40493827 46.1269722,5.03703704 45.5343796,6.08395062 L45.4948734,6.08395062 L45.4948734,4.70123457 L43.5590709,4.70123457 L43.5590709,13.8271605 L45.4948734,13.8271605 L45.4948734,9.4617284 C45.4948734,7.19012346 46.5022808,6.34074074 47.924503,6.34074074 C49.2282067,6.34074074 50.0183302,6.99259259 50.0183302,8.55308642 L50.0183302,13.8271605 L51.9541327,13.8271605 L51.9541327,8.21728395 C51.9541327,5.45185185 50.4726512,4.40493827 48.5170956,4.40493827 Z M58.7491944,6.34074074 L58.7491944,4.70123457 L56.8924043,4.70123457 L56.8924043,1.04691358 L54.9566018,1.04691358 L54.9566018,4.70123457 L53.3368487,4.70123457 L53.3368487,6.34074074 L54.9566018,6.34074074 L54.9566018,11.4962963 C54.9566018,12.9975309 55.8257376,13.8469136 57.4257376,13.8469136 L58.3146265,13.8469136 L58.3146265,12.0691358 L57.8405524,12.0691358 C57.1689475,12.0691358 56.8924043,11.7728395 56.8924043,11.1209877 L56.8924043,6.34074074 L58.7491944,6.34074074 Z M64.1812932,14.1234568 C61.7714166,14.1234568 59.7368487,12.3061728 59.7368487,9.26419753 C59.7368487,6.22222222 61.7714166,4.40493827 64.1812932,4.40493827 C65.6825277,4.40493827 66.6899351,5.05679012 67.2627746,6.04444444 L67.3022808,6.04444444 L67.3022808,4.70123457 L69.2380833,4.70123457 L69.2380833,13.8271605 L67.3022808,13.8271605 L67.3022808,12.4839506 L67.2627746,12.4839506 C66.6899351,13.4716049 65.6825277,14.1234568 64.1812932,14.1234568 Z M64.596108,12.2271605 C66.2948734,12.2271605 67.4010462,11.0024691 67.4010462,9.26419753 C67.4010462,7.52592593 66.2948734,6.30123457 64.596108,6.30123457 C62.8973425,6.30123457 61.7911697,7.52592593 61.7911697,9.26419753 C61.7911697,11.0024691 62.8973425,12.2271605 64.596108,12.2271605 Z M79.8652438,13.8271605 L75.6183302,8.84938272 L79.450429,4.70123457 L76.9022808,4.70123457 L73.6430216,8.59259259 L73.6430216,-7.10542736e-15 L71.7072191,-7.10542736e-15 L71.7072191,13.8271605 L73.6430216,13.8271605 L73.6430216,9.34320988 L77.3170956,13.8271605 L79.8652438,13.8271605 Z" id="qontak-copy" fill="#0274F5"></path>
                <path d="M59.4705,18.45325 C59.594,18.45325 59.7159167,18.4279167 59.83625,18.37725 C59.9565833,18.3265833 60.0650417,18.249 60.161625,18.1445 C60.2582083,18.04 60.3365833,17.9062083 60.39675,17.743125 C60.4569167,17.5800417 60.487,17.3860833 60.487,17.16125 C60.487,16.9364167 60.4569167,16.7424583 60.39675,16.579375 C60.3365833,16.4162917 60.2582083,16.2825 60.161625,16.178 C60.0650417,16.0735 59.9565833,15.9959167 59.83625,15.94525 C59.7159167,15.8945833 59.594,15.86925 59.4705,15.86925 C59.3185,15.86925 59.1720417,15.8985417 59.031125,15.957125 C58.8902083,16.0157083 58.7785833,16.1083333 58.69625,16.235 L58.68675,16.235 L58.68675,15 L58.01225,15 L58.01225,18.3915 L58.6535,18.3915 L58.6535,18.078 L58.663,18.078 C58.7358333,18.2141667 58.8435,18.31075 58.986,18.36775 C59.1285,18.42475 59.29,18.45325 59.4705,18.45325 Z M59.23775,17.94975 C59.1395833,17.94975 59.0540833,17.928375 58.98125,17.885625 C58.9084167,17.842875 58.84825,17.7850833 58.80075,17.71225 C58.75325,17.6394167 58.7184167,17.5555 58.69625,17.4605 C58.6740833,17.3655 58.663,17.2673333 58.663,17.166 C58.663,17.0615 58.6740833,16.96175 58.69625,16.86675 C58.7184167,16.77175 58.75325,16.6878333 58.80075,16.615 C58.84825,16.5421667 58.9084167,16.484375 58.98125,16.441625 C59.0540833,16.398875 59.1395833,16.3775 59.23775,16.3775 C59.3390833,16.3775 59.425375,16.398875 59.496625,16.441625 C59.567875,16.484375 59.62725,16.5421667 59.67475,16.615 C59.72225,16.6878333 59.7570833,16.77175 59.77925,16.86675 C59.8014167,16.96175 59.8125,17.0615 59.8125,17.166 C59.8125,17.2673333 59.8014167,17.3655 59.77925,17.4605 C59.7570833,17.5555 59.72225,17.6394167 59.67475,17.71225 C59.62725,17.7850833 59.567875,17.842875 59.496625,17.885625 C59.425375,17.928375 59.3390833,17.94975 59.23775,17.94975 Z M61.28025,19.25125 C61.5114167,19.25125 61.6919167,19.2085 61.82175,19.123 C61.9515833,19.0375 62.0529167,18.895 62.12575,18.6955 L63.15175,15.93575 L62.4535,15.93575 L61.91675,17.61725 L61.90725,17.61725 L61.3515,15.93575 L60.63425,15.93575 L61.494,18.2395 C61.513,18.287 61.5225,18.3376667 61.5225,18.3915 C61.5225,18.4643333 61.501125,18.5308333 61.458375,18.591 C61.415625,18.6511667 61.3499167,18.686 61.26125,18.6955 C61.19475,18.6986667 61.12825,18.6970833 61.06175,18.69075 C60.99525,18.6844167 60.9303333,18.6780833 60.867,18.67175 L60.867,19.2275 C60.9366667,19.2338333 61.0055417,19.239375 61.073625,19.244125 C61.1417083,19.248875 61.2105833,19.25125 61.28025,19.25125 Z M65.39375,18.3915 L65.39375,16.9665 C65.39375,16.8461667 65.4111667,16.7487917 65.446,16.674375 C65.4808333,16.5999583 65.5227917,16.5429583 65.571875,16.503375 C65.6209583,16.4637917 65.671625,16.436875 65.723875,16.422625 C65.776125,16.408375 65.8180833,16.40125 65.84975,16.40125 C65.9574167,16.40125 66.0389583,16.4194583 66.094375,16.455875 C66.1497917,16.4922917 66.189375,16.5405833 66.213125,16.60075 C66.236875,16.6609167 66.2503333,16.726625 66.2535,16.797875 C66.2566667,16.869125 66.25825,16.9411667 66.25825,17.014 L66.25825,18.3915 L66.93275,18.3915 L66.93275,17.0235 C66.93275,16.9475 66.9382917,16.8722917 66.949375,16.797875 C66.9604583,16.7234583 66.982625,16.6569583 67.015875,16.598375 C67.049125,16.5397917 67.0950417,16.4922917 67.153625,16.455875 C67.2122083,16.4194583 67.289,16.40125 67.384,16.40125 C67.479,16.40125 67.5542083,16.4170833 67.609625,16.44875 C67.6650417,16.4804167 67.707,16.5231667 67.7355,16.577 C67.764,16.6308333 67.7814167,16.6941667 67.78775,16.767 C67.7940833,16.8398333 67.79725,16.9174167 67.79725,16.99975 L67.79725,18.3915 L68.47175,18.3915 L68.47175,16.748 C68.47175,16.5896667 68.4495833,16.4542917 68.40525,16.341875 C68.3609167,16.2294583 68.2991667,16.1384167 68.22,16.06875 C68.1408333,15.9990833 68.0458333,15.9484167 67.935,15.91675 C67.8241667,15.8850833 67.7038333,15.86925 67.574,15.86925 C67.403,15.86925 67.2549583,15.9104167 67.129875,15.99275 C67.0047917,16.0750833 66.9058333,16.1700833 66.833,16.27775 C66.7665,16.12575 66.669125,16.0196667 66.540875,15.9595 C66.412625,15.8993333 66.2709167,15.86925 66.11575,15.86925 C65.95425,15.86925 65.8109583,15.9040833 65.685875,15.97375 C65.5607917,16.0434167 65.4539167,16.1415833 65.36525,16.26825 L65.35575,16.26825 L65.35575,15.93575 L64.71925,15.93575 L64.71925,18.3915 L65.39375,18.3915 Z M70.139,18.45325 C70.4176667,18.45325 70.6551667,18.3899167 70.8515,18.26325 C71.0478333,18.1365833 71.1935,17.926 71.2885,17.6315 L70.69475,17.6315 C70.6725833,17.7075 70.6124167,17.7795417 70.51425,17.847625 C70.4160833,17.9157083 70.2989167,17.94975 70.16275,17.94975 C69.97275,17.94975 69.8270833,17.9006667 69.72575,17.8025 C69.6244167,17.7043333 69.569,17.546 69.5595,17.3275 L71.33125,17.3275 C71.3439167,17.1375 71.3280833,16.9554167 71.28375,16.78125 C71.2394167,16.6070833 71.167375,16.4519167 71.067625,16.31575 C70.967875,16.1795833 70.8404167,16.071125 70.68525,15.990375 C70.5300833,15.909625 70.348,15.86925 70.139,15.86925 C69.9521667,15.86925 69.7819583,15.9025 69.628375,15.969 C69.4747917,16.0355 69.3425833,16.1265417 69.23175,16.242125 C69.1209167,16.3577083 69.0354167,16.4946667 68.97525,16.653 C68.9150833,16.8113333 68.885,16.9823333 68.885,17.166 C68.885,17.356 68.9142917,17.5301667 68.972875,17.6885 C69.0314583,17.8468333 69.1145833,17.983 69.22225,18.097 C69.3299167,18.211 69.4613333,18.298875 69.6165,18.360625 C69.7716667,18.422375 69.9458333,18.45325 70.139,18.45325 Z M70.65675,16.9 L69.5595,16.9 C69.5626667,16.8525 69.5729583,16.7986667 69.590375,16.7385 C69.6077917,16.6783333 69.637875,16.6213333 69.680625,16.5675 C69.723375,16.5136667 69.780375,16.4685417 69.851625,16.432125 C69.922875,16.3957083 70.0123333,16.3775 70.12,16.3775 C70.2846667,16.3775 70.407375,16.4218333 70.488125,16.5105 C70.568875,16.5991667 70.6250833,16.729 70.65675,16.9 Z M72.4665,18.3915 L72.4665,17.546 L72.72775,17.29425 L73.40225,18.3915 L74.21925,18.3915 L73.1885,16.83825 L74.11475,15.93575 L73.31675,15.93575 L72.4665,16.81925 L72.4665,15 L71.792,15 L71.792,18.3915 L72.4665,18.3915 Z M75.18825,18.45325 C75.34025,18.45325 75.4890833,18.4310833 75.63475,18.38675 C75.7804167,18.3424167 75.9070833,18.2648333 76.01475,18.154 C76.0179167,18.1951667 76.0234583,18.2355417 76.031375,18.275125 C76.0392917,18.3147083 76.0495833,18.3535 76.06225,18.3915 L76.06225,18.3915 L76.74625,18.3915 C76.7145833,18.3408333 76.6924167,18.2648333 76.67975,18.1635 C76.6670833,18.0621667 76.66075,17.9560833 76.66075,17.84525 L76.66075,17.84525 L76.66075,16.5675 C76.66075,16.4186667 76.6275,16.299125 76.561,16.208875 C76.4945,16.118625 76.409,16.0481667 76.3045,15.9975 C76.2,15.9468333 76.0844167,15.9127917 75.95775,15.895375 C75.8310833,15.8779583 75.706,15.86925 75.5825,15.86925 C75.4463333,15.86925 75.3109583,15.8827083 75.176375,15.909625 C75.0417917,15.9365417 74.9206667,15.9816667 74.813,16.045 C74.7053333,16.1083333 74.6166667,16.19225 74.547,16.29675 C74.4773333,16.40125 74.43775,16.5326667 74.42825,16.691 L74.42825,16.691 L75.10275,16.691 C75.1154167,16.558 75.15975,16.463 75.23575,16.406 C75.31175,16.349 75.41625,16.3205 75.54925,16.3205 C75.6094167,16.3205 75.665625,16.3244583 75.717875,16.332375 C75.770125,16.3402917 75.8160417,16.356125 75.855625,16.379875 C75.8952083,16.403625 75.926875,16.436875 75.950625,16.479625 C75.974375,16.522375 75.98625,16.5801667 75.98625,16.653 C75.9894167,16.7226667 75.9688333,16.7757083 75.9245,16.812125 C75.8801667,16.8485417 75.82,16.87625 75.744,16.89525 C75.668,16.91425 75.5809167,16.9285 75.48275,16.938 C75.3845833,16.9475 75.2848333,16.9601667 75.1835,16.976 C75.0821667,16.9918333 74.981625,17.0132083 74.881875,17.040125 C74.782125,17.0670417 74.6934583,17.1074167 74.615875,17.16125 C74.5382917,17.2150833 74.4749583,17.287125 74.425875,17.377375 C74.3767917,17.467625 74.35225,17.5824167 74.35225,17.72175 C74.35225,17.8484167 74.373625,17.9576667 74.416375,18.0495 C74.459125,18.1413333 74.5185,18.2173333 74.5945,18.2775 C74.6705,18.3376667 74.7591667,18.382 74.8605,18.4105 C74.9618333,18.439 75.0710833,18.45325 75.18825,18.45325 Z M75.44,18.00675 C75.3861667,18.00675 75.3339167,18.002 75.28325,17.9925 C75.2325833,17.983 75.18825,17.966375 75.15025,17.942625 C75.11225,17.918875 75.0821667,17.8864167 75.06,17.84525 C75.0378333,17.8040833 75.02675,17.7534167 75.02675,17.69325 C75.02675,17.6299167 75.0378333,17.5776667 75.06,17.5365 C75.0821667,17.4953333 75.1114583,17.4612917 75.147875,17.434375 C75.1842917,17.4074583 75.2270417,17.3860833 75.276125,17.37025 C75.3252083,17.3544167 75.3750833,17.34175 75.42575,17.33225 C75.4795833,17.32275 75.5334167,17.3148333 75.58725,17.3085 C75.6410833,17.3021667 75.6925417,17.29425 75.741625,17.28475 C75.7907083,17.27525 75.836625,17.263375 75.879375,17.249125 C75.922125,17.234875 75.95775,17.2150833 75.98625,17.18975 L75.98625,17.18975 L75.98625,17.4415 C75.98625,17.4795 75.9822917,17.5301667 75.974375,17.5935 C75.9664583,17.6568333 75.9450833,17.719375 75.91025,17.781125 C75.8754167,17.842875 75.8215833,17.8959167 75.74875,17.94025 C75.6759167,17.9845833 75.573,18.00675 75.44,18.00675 Z M77.85775,18.3915 L77.85775,17.28475 C77.85775,17.1739167 77.8688333,17.071 77.891,16.976 C77.9131667,16.881 77.950375,16.797875 78.002625,16.726625 C78.054875,16.655375 78.12375,16.5991667 78.20925,16.558 C78.29475,16.5168333 78.39925,16.49625 78.52275,16.49625 C78.5639167,16.49625 78.6066667,16.498625 78.651,16.503375 C78.6953333,16.508125 78.7333333,16.5136667 78.765,16.52 L78.765,15.893 C78.7111667,15.8771667 78.6620833,15.86925 78.61775,15.86925 C78.53225,15.86925 78.4499167,15.8819167 78.37075,15.90725 C78.2915833,15.9325833 78.2171667,15.9682083 78.1475,16.014125 C78.0778333,16.0600417 78.0160833,16.1154583 77.96225,16.180375 C77.9084167,16.2452917 77.8656667,16.31575 77.834,16.39175 L77.8245,16.39175 L77.8245,15.93575 L77.18325,15.93575 L77.18325,18.3915 L77.85775,18.3915 Z M79.7245,15.55575 L79.7245,15 L79.05,15 L79.05,15.55575 L79.7245,15.55575 Z M79.7245,18.3915 L79.7245,15.93575 L79.05,15.93575 L79.05,18.3915 L79.7245,18.3915 Z" id="bymekari" fill="#2B2A35" fill-rule="nonzero"></path>
                <path d="M8.73294347,13.7231969 L13.7231969,13.7231969 C15.894623,13.7231969 17.6673704,15.4301435 17.7728157,17.5754133 L17.7777778,17.7777778 L8.73294347,17.7777778 C3.89551291,17.6930446 0,13.7458896 0,8.88888889 C0,3.97969111 3.97969111,0 8.88888889,0 C13.7980867,0 17.7777778,3.97969111 17.7777778,8.88888889 C17.7777778,10.2741419 17.4609038,11.5853851 16.8956861,12.7540882 C16.1997117,12.1895319 15.3127798,11.8518519 14.3469786,11.8518519 L14.3469786,11.8518519 L12.3760923,11.8523194 C12.9433276,11.0860022 13.2787524,10.137728 13.2787524,9.11111111 C13.2787524,6.56392648 11.2138513,4.49902534 8.66666667,4.49902534 C6.11948203,4.49902534 4.0545809,6.56392648 4.0545809,9.11111111 C4.0545809,11.6582957 6.11948203,13.7231969 8.66666667,13.7231969 L8.732,13.721 L8.73294347,13.7231969 Z" id="Combined-Shape" fill="#0274F5"></path>
            </g>
        </g>
    </g>
</svg>